<?xml version="1.0" encoding="UTF-8" standalone="no"?>
<!-- Created with Inkscape (http://www.inkscape.org/) -->

<svg
   xmlns:dc="http://purl.org/dc/elements/1.1/"
   xmlns:cc="http://creativecommons.org/ns#"
   xmlns:rdf="http://www.w3.org/1999/02/22-rdf-syntax-ns#"
   xmlns:svg="http://www.w3.org/2000/svg"
   xmlns="http://www.w3.org/2000/svg"
   xmlns:sodipodi="http://sodipodi.sourceforge.net/DTD/sodipodi-0.dtd"
   xmlns:inkscape="http://www.inkscape.org/namespaces/inkscape"
   width="209.28101mm"
   height="222.03693mm"
   viewBox="0 0 209.28101 222.03693"
   version="1.1"
   id="svg4692"
   inkscape:version="0.92.4 (5da689c313, 2019-01-14)"
   sodipodi:docname="LXA_logo.svg">
  <defs
     id="defs4686">
    <inkscape:path-effect
       effect="spiro"
       id="path-effect1307"
       is_visible="true" />
  </defs>
  <sodipodi:namedview
     id="base"
     pagecolor="#ffffff"
     bordercolor="#666666"
     borderopacity="1.0"
     inkscape:pageopacity="0.0"
     inkscape:pageshadow="2"
     inkscape:zoom="0.35"
     inkscape:cx="248.79271"
     inkscape:cy="44.316459"
     inkscape:document-units="mm"
     inkscape:current-layer="g1375"
     showgrid="false"
     inkscape:window-width="1920"
     inkscape:window-height="1031"
     inkscape:window-x="0"
     inkscape:window-y="0"
     inkscape:window-maximized="1"
     fit-margin-top="0"
     fit-margin-left="0"
     fit-margin-right="0"
     fit-margin-bottom="0"
     inkscape:pagecheckerboard="true"
     inkscape:showpageshadow="false"
     borderlayer="true"
     showguides="false"
     inkscape:snap-global="true"
     inkscape:object-paths="true"
     inkscape:object-nodes="false"
     inkscape:snap-others="false"
     inkscape:snap-nodes="true" />
  <metadata
     id="metadata4689">
    <rdf:RDF>
      <cc:Work
         rdf:about="">
        <dc:format>image/svg+xml</dc:format>
        <dc:type
           rdf:resource="http://purl.org/dc/dcmitype/StillImage" />
        <dc:title></dc:title>
      </cc:Work>
    </rdf:RDF>
  </metadata>
  <g
     inkscape:label="Layer 1"
     inkscape:groupmode="layer"
     id="layer1"
     transform="translate(-24.09879,-15.440718)">
    <g
       id="g1375"
       transform="translate(-626.94294,-13.985119)"
       inkscape:label="#lxa_logo">
      <path
         style="color:#000000;font-style:normal;font-variant:normal;font-weight:normal;font-stretch:normal;font-size:medium;line-height:normal;font-family:sans-serif;font-variant-ligatures:normal;font-variant-position:normal;font-variant-caps:normal;font-variant-numeric:normal;font-variant-alternates:normal;font-feature-settings:normal;text-indent:0;text-align:start;text-decoration:none;text-decoration-line:none;text-decoration-style:solid;text-decoration-color:#000000;letter-spacing:normal;word-spacing:normal;text-transform:none;writing-mode:lr-tb;direction:ltr;text-orientation:mixed;dominant-baseline:auto;baseline-shift:baseline;text-anchor:start;white-space:normal;shape-padding:0;clip-rule:nonzero;display:inline;overflow:visible;visibility:visible;opacity:1;isolation:auto;mix-blend-mode:normal;color-interpolation:sRGB;color-interpolation-filters:linearRGB;solid-color:#000000;solid-opacity:1;vector-effect:none;fill:#231f20;fill-opacity:1;fill-rule:nonzero;stroke:none;stroke-width:3.70149112;stroke-linecap:butt;stroke-linejoin:miter;stroke-miterlimit:4;stroke-dasharray:none;stroke-dashoffset:0;stroke-opacity:1;color-rendering:auto;image-rendering:auto;shape-rendering:auto;text-rendering:auto;enable-background:accumulate"
         d="m 723.67383,52.830078 -2.11914,0.753906 -17.06055,6.023438 c -39.54261,17.034724 -65.48168,28.518572 -95.45936,45.451378 -7.39028,4.17438 -15.026,8.67992 -23.1715,13.68143 -36.7929,-11.86746 -75.20777,-17.94004 -113.86719,-18 -205.90202,-3.1e-4 -372.818671,166.91634 -372.818356,372.81836 -1.51e-4,98.87762 39.278766,193.70552 109.195806,263.62256 69.91703,69.91703 164.74493,109.19595 263.62255,109.1958 98.87729,-3.7e-4 193.70468,-39.27951 263.6213,-109.19649 C 805.534,667.26348 844.81265,572.43588 844.8125,473.55859 844.64973,371.90524 802.9854,274.72633 729.4668,204.52344 734.4936,129.32157 727.08179,76.275252 726.60352,72.96875 Z"
         id="rocket_upper_stage_black-9"
         inkscape:connector-curvature="0"
         transform="matrix(0.26458333,0,0,0.26458333,630.85307,15.447879)"
         sodipodi:nodetypes="cccscccscscccc" />
      <g
         transform="translate(652.51055)"
         id="g1210"
         inkscape:label="#stars_left">
        <path
           style="color:#000000;font-style:normal;font-variant:normal;font-weight:normal;font-stretch:normal;font-size:medium;line-height:normal;font-family:sans-serif;font-variant-ligatures:normal;font-variant-position:normal;font-variant-caps:normal;font-variant-numeric:normal;font-variant-alternates:normal;font-feature-settings:normal;text-indent:0;text-align:start;text-decoration:none;text-decoration-line:none;text-decoration-style:solid;text-decoration-color:#000000;letter-spacing:normal;word-spacing:normal;text-transform:none;writing-mode:lr-tb;direction:ltr;text-orientation:mixed;dominant-baseline:auto;baseline-shift:baseline;text-anchor:start;white-space:normal;shape-padding:0;clip-rule:nonzero;display:inline;overflow:visible;visibility:visible;opacity:1;isolation:auto;mix-blend-mode:normal;color-interpolation:sRGB;color-interpolation-filters:linearRGB;solid-color:#000000;solid-opacity:1;vector-effect:none;fill:#ffffff;fill-opacity:1;fill-rule:nonzero;stroke:none;stroke-width:0.97935283;stroke-linecap:butt;stroke-linejoin:miter;stroke-miterlimit:4;stroke-dasharray:none;stroke-dashoffset:0;stroke-opacity:1;color-rendering:auto;image-rendering:auto;shape-rendering:auto;text-rendering:auto;enable-background:accumulate"
           d="m 58.326142,76.894401 c -2.170008,0 -3.939453,1.770552 -3.939453,3.941407 0,2.170008 1.769445,3.941406 3.939453,3.941406 2.171701,0 3.941406,-1.771735 3.941406,-3.941406 0,-2.170519 -1.769705,-3.941407 -3.941406,-3.941407 z"
           id="path1204"
           inkscape:label="#path_star7"
           inkscape:connector-curvature="0" />
        <path
           style="color:#000000;font-style:normal;font-variant:normal;font-weight:normal;font-stretch:normal;font-size:medium;line-height:normal;font-family:sans-serif;font-variant-ligatures:normal;font-variant-position:normal;font-variant-caps:normal;font-variant-numeric:normal;font-variant-alternates:normal;font-feature-settings:normal;text-indent:0;text-align:start;text-decoration:none;text-decoration-line:none;text-decoration-style:solid;text-decoration-color:#000000;letter-spacing:normal;word-spacing:normal;text-transform:none;writing-mode:lr-tb;direction:ltr;text-orientation:mixed;dominant-baseline:auto;baseline-shift:baseline;text-anchor:start;white-space:normal;shape-padding:0;clip-rule:nonzero;display:inline;overflow:visible;visibility:visible;opacity:1;isolation:auto;mix-blend-mode:normal;color-interpolation:sRGB;color-interpolation-filters:linearRGB;solid-color:#000000;solid-opacity:1;vector-effect:none;fill:#ffffff;fill-opacity:1;fill-rule:nonzero;stroke:none;stroke-width:0.97935283;stroke-linecap:butt;stroke-linejoin:miter;stroke-miterlimit:4;stroke-dasharray:none;stroke-dashoffset:0;stroke-opacity:1;color-rendering:auto;image-rendering:auto;shape-rendering:auto;text-rendering:auto;enable-background:accumulate"
           d="m 28.833954,106.38659 c -2.170008,0 -3.939453,1.77055 -3.939453,3.9414 0,2.17001 1.769445,3.94141 3.939453,3.94141 2.171701,0 3.939454,-1.77173 3.939454,-3.94141 0,-2.17051 -1.767753,-3.9414 -3.939454,-3.9414 z"
           id="path1206"
           inkscape:label="#path_star5"
           inkscape:connector-curvature="0" />
        <path
           style="color:#000000;font-style:normal;font-variant:normal;font-weight:normal;font-stretch:normal;font-size:medium;line-height:normal;font-family:sans-serif;font-variant-ligatures:normal;font-variant-position:normal;font-variant-caps:normal;font-variant-numeric:normal;font-variant-alternates:normal;font-feature-settings:normal;text-indent:0;text-align:start;text-decoration:none;text-decoration-line:none;text-decoration-style:solid;text-decoration-color:#000000;letter-spacing:normal;word-spacing:normal;text-transform:none;writing-mode:lr-tb;direction:ltr;text-orientation:mixed;dominant-baseline:auto;baseline-shift:baseline;text-anchor:start;white-space:normal;shape-padding:0;clip-rule:nonzero;display:inline;overflow:visible;visibility:visible;opacity:1;isolation:auto;mix-blend-mode:normal;color-interpolation:sRGB;color-interpolation-filters:linearRGB;solid-color:#000000;solid-opacity:1;vector-effect:none;fill:#ffffff;fill-opacity:1;fill-rule:nonzero;stroke:none;stroke-width:0.97935283;stroke-linecap:butt;stroke-linejoin:miter;stroke-miterlimit:4;stroke-dasharray:none;stroke-dashoffset:0;stroke-opacity:1;color-rendering:auto;image-rendering:auto;shape-rendering:auto;text-rendering:auto;enable-background:accumulate"
           d="m 58.326142,96.556511 c -2.170008,0 -3.939453,1.770551 -3.939453,3.941409 0,2.17001 1.769445,3.93945 3.939453,3.93945 2.171701,0 3.941406,-1.76978 3.941406,-3.93945 0,-2.170521 -1.769705,-3.941409 -3.941406,-3.941409 z"
           id="path1208"
           inkscape:label="#path_star6"
           inkscape:connector-curvature="0" />
      </g>
      <g
         transform="translate(652.51055)"
         id="g1220"
         inkscape:label="#stars_right">
        <path
           style="color:#000000;font-style:normal;font-variant:normal;font-weight:normal;font-stretch:normal;font-size:medium;line-height:normal;font-family:sans-serif;font-variant-ligatures:normal;font-variant-position:normal;font-variant-caps:normal;font-variant-numeric:normal;font-variant-alternates:normal;font-feature-settings:normal;text-indent:0;text-align:start;text-decoration:none;text-decoration-line:none;text-decoration-style:solid;text-decoration-color:#000000;letter-spacing:normal;word-spacing:normal;text-transform:none;writing-mode:lr-tb;direction:ltr;text-orientation:mixed;dominant-baseline:auto;baseline-shift:baseline;text-anchor:start;white-space:normal;shape-padding:0;clip-rule:nonzero;display:inline;overflow:visible;visibility:visible;opacity:1;isolation:auto;mix-blend-mode:normal;color-interpolation:sRGB;color-interpolation-filters:linearRGB;solid-color:#000000;solid-opacity:1;vector-effect:none;fill:#ffffff;fill-opacity:0.99103142;fill-rule:nonzero;stroke:none;stroke-width:0.97935283;stroke-linecap:butt;stroke-linejoin:miter;stroke-miterlimit:4;stroke-dasharray:none;stroke-dashoffset:0;stroke-opacity:1;color-rendering:auto;image-rendering:auto;shape-rendering:auto;text-rendering:auto;enable-background:accumulate"
           d="m 153.68552,166.35534 c -2.17001,0 -3.94141,1.77055 -3.94141,3.94141 0,2.17 1.7714,3.93945 3.94141,3.93945 2.17169,0 3.93945,-1.76978 3.93945,-3.93945 0,-2.17052 -1.76776,-3.94141 -3.93945,-3.94141 z"
           id="path1212"
           inkscape:label="#path_star2"
           inkscape:connector-curvature="0" />
        <path
           style="color:#000000;font-style:normal;font-variant:normal;font-weight:normal;font-stretch:normal;font-size:medium;line-height:normal;font-family:sans-serif;font-variant-ligatures:normal;font-variant-position:normal;font-variant-caps:normal;font-variant-numeric:normal;font-variant-alternates:normal;font-feature-settings:normal;text-indent:0;text-align:start;text-decoration:none;text-decoration-line:none;text-decoration-style:solid;text-decoration-color:#000000;letter-spacing:normal;word-spacing:normal;text-transform:none;writing-mode:lr-tb;direction:ltr;text-orientation:mixed;dominant-baseline:auto;baseline-shift:baseline;text-anchor:start;white-space:normal;shape-padding:0;clip-rule:nonzero;display:inline;overflow:visible;visibility:visible;opacity:1;isolation:auto;mix-blend-mode:normal;color-interpolation:sRGB;color-interpolation-filters:linearRGB;solid-color:#000000;solid-opacity:1;vector-effect:none;fill:#ffffff;fill-opacity:1;fill-rule:nonzero;stroke:none;stroke-width:0.97935283;stroke-linecap:butt;stroke-linejoin:miter;stroke-miterlimit:4;stroke-dasharray:none;stroke-dashoffset:0;stroke-opacity:1;color-rendering:auto;image-rendering:auto;shape-rendering:auto;text-rendering:auto;enable-background:accumulate"
           d="m 171.38083,145.71081 c -2.17001,0 -3.94141,1.77055 -3.94141,3.9414 0,2.17001 1.7714,3.93946 3.94141,3.93946 2.1717,0 3.93945,-1.76978 3.93945,-3.93946 0,-2.17051 -1.76775,-3.9414 -3.93945,-3.9414 z"
           id="path1214"
           inkscape:label="#path_star3"
           inkscape:connector-curvature="0" />
        <path
           style="color:#000000;font-style:normal;font-variant:normal;font-weight:normal;font-stretch:normal;font-size:medium;line-height:normal;font-family:sans-serif;font-variant-ligatures:normal;font-variant-position:normal;font-variant-caps:normal;font-variant-numeric:normal;font-variant-alternates:normal;font-feature-settings:normal;text-indent:0;text-align:start;text-decoration:none;text-decoration-line:none;text-decoration-style:solid;text-decoration-color:#000000;letter-spacing:normal;word-spacing:normal;text-transform:none;writing-mode:lr-tb;direction:ltr;text-orientation:mixed;dominant-baseline:auto;baseline-shift:baseline;text-anchor:start;white-space:normal;shape-padding:0;clip-rule:nonzero;display:inline;overflow:visible;visibility:visible;opacity:1;isolation:auto;mix-blend-mode:normal;color-interpolation:sRGB;color-interpolation-filters:linearRGB;solid-color:#000000;solid-opacity:1;vector-effect:none;fill:#ffffff;fill-opacity:0.99103142;fill-rule:nonzero;stroke:none;stroke-width:0.97935283;stroke-linecap:butt;stroke-linejoin:miter;stroke-miterlimit:4;stroke-dasharray:none;stroke-dashoffset:0;stroke-opacity:1;color-rendering:auto;image-rendering:auto;shape-rendering:auto;text-rendering:auto;enable-background:accumulate"
           d="m 176.29685,175.20299 c -2.17001,0 -3.94141,1.77056 -3.94141,3.94141 0,2.17001 1.7714,3.93945 3.94141,3.93945 2.17169,0 3.93945,-1.76978 3.93945,-3.93945 0,-2.17052 -1.76776,-3.94141 -3.93945,-3.94141 z"
           id="path1216"
           inkscape:label="#path_star1"
           inkscape:connector-curvature="0" />
        <path
           style="color:#000000;font-style:normal;font-variant:normal;font-weight:normal;font-stretch:normal;font-size:medium;line-height:normal;font-family:sans-serif;font-variant-ligatures:normal;font-variant-position:normal;font-variant-caps:normal;font-variant-numeric:normal;font-variant-alternates:normal;font-feature-settings:normal;text-indent:0;text-align:start;text-decoration:none;text-decoration-line:none;text-decoration-style:solid;text-decoration-color:#000000;letter-spacing:normal;word-spacing:normal;text-transform:none;writing-mode:lr-tb;direction:ltr;text-orientation:mixed;dominant-baseline:auto;baseline-shift:baseline;text-anchor:start;white-space:normal;shape-padding:0;clip-rule:nonzero;display:inline;overflow:visible;visibility:visible;opacity:1;isolation:auto;mix-blend-mode:normal;color-interpolation:sRGB;color-interpolation-filters:linearRGB;solid-color:#000000;solid-opacity:1;vector-effect:none;fill:#ffffff;fill-opacity:1;fill-rule:nonzero;stroke:none;stroke-width:0.97935283;stroke-linecap:butt;stroke-linejoin:miter;stroke-miterlimit:4;stroke-dasharray:none;stroke-dashoffset:0;stroke-opacity:1;color-rendering:auto;image-rendering:auto;shape-rendering:auto;text-rendering:auto;enable-background:accumulate"
           d="m 176.29685,116.21862 c -2.17001,0 -3.94141,1.77055 -3.94141,3.94141 0,2.17001 1.7714,3.93945 3.94141,3.93945 2.17169,0 3.93945,-1.76978 3.93945,-3.93945 0,-2.17052 -1.76776,-3.94141 -3.93945,-3.94141 z"
           id="path1218"
           inkscape:label="#path_star4"
           inkscape:connector-curvature="0" />
      </g>
      <path
         inkscape:label="#path_flame"
         id="path_flame"
         d="m 711.43825,183.85143 c -7.86624,0.61194 -15.33139,4.87696 -19.72265,12.14063 -1.85018,3.06022 -2.96909,7.96957 -3.67383,13.6582 -0.70474,5.68863 -0.97353,12.14833 -1.02148,18.23828 -0.0959,12.1799 0.69726,22.88672 0.69726,22.88672 l 0.0508,0.6875 0.63086,-0.27539 c 0,0 9.84925,-4.27268 20.58984,-10.01758 5.3703,-2.87245 10.96387,-6.1133 15.67383,-9.38086 4.70997,-3.26755 8.53802,-6.5392 10.38867,-9.59961 5.28609,-8.74533 4.63666,-19.41203 -0.76171,-27.3457 -0.0328,-0.0401 -0.25344,-0.36989 -0.59448,-0.23835 -0.31107,0.11999 -0.31642,0.44074 -0.29615,0.57234 0.29628,2.45136 -0.18042,5.00812 -1.55664,7.28516 -0.77561,1.28232 -2.55719,2.84463 -4.7832,4.38867 -2.22601,1.54405 -4.89447,3.09126 -7.45899,4.46289 -4.78499,2.55926 -8.60449,4.21667 -9.17578,4.4668 -0.0439,-0.62124 -0.35337,-4.77619 -0.31055,-10.20313 0.023,-2.90824 0.15321,-5.98909 0.48633,-8.67773 0.33312,-2.68864 0.8904,-4.99262 1.66602,-6.27539 1.63888,-2.71261 4.2215,-4.49449 7.07422,-5.19141 0.13477,-0.0437 0.42774,-0.0823 0.44134,-0.47668 0.0118,-0.341 -0.30435,-0.44806 -0.44334,-0.47644 -2.61252,-0.63239 -5.27831,-0.83289 -7.90039,-0.62891 z"
         style="color:#000000;font-style:normal;font-variant:normal;font-weight:normal;font-stretch:normal;font-size:medium;line-height:normal;font-family:sans-serif;font-variant-ligatures:normal;font-variant-position:normal;font-variant-caps:normal;font-variant-numeric:normal;font-variant-alternates:normal;font-feature-settings:normal;text-indent:0;text-align:start;text-decoration:none;text-decoration-line:none;text-decoration-style:solid;text-decoration-color:#000000;letter-spacing:normal;word-spacing:normal;text-transform:none;writing-mode:lr-tb;direction:ltr;text-orientation:mixed;dominant-baseline:auto;baseline-shift:baseline;text-anchor:start;white-space:normal;shape-padding:0;clip-rule:nonzero;display:inline;overflow:visible;visibility:visible;opacity:1;isolation:auto;mix-blend-mode:normal;color-interpolation:sRGB;color-interpolation-filters:linearRGB;solid-color:#000000;solid-opacity:1;vector-effect:none;fill:#f4d817;fill-opacity:1;fill-rule:nonzero;stroke:none;stroke-width:0.97935283;stroke-linecap:butt;stroke-linejoin:miter;stroke-miterlimit:4;stroke-dasharray:none;stroke-dashoffset:0;stroke-opacity:1;color-rendering:auto;image-rendering:auto;shape-rendering:auto;text-rendering:auto;enable-background:accumulate"
         inkscape:connector-curvature="0"
         sodipodi:nodetypes="ccsscccscccscccccssccsccc" />
      <path
         inkscape:connector-curvature="0"
         inkscape:label="#path_rocket_wing_right"
         id="path_rocket_wing_right"
         d="m 782.13552,172.85925 c 6.16273,12.98195 12.19305,34.65626 -0.98828,56.61523 -0.38058,0.63224 -1.01664,0.83081 -1.61133,0.7168 -0.59468,-0.11402 -1.09993,-0.52609 -1.20703,-1.25391 -1.16787,-7.91545 -4.46021,-23.15069 -13.21875,-36.94922 0.0927,-0.0896 0.18253,-0.17627 0.2832,-0.27539 v -0.002 c 5.64897,-5.59256 11.26714,-11.94734 16.74219,-18.85156 z"
         style="color:#000000;font-style:normal;font-variant:normal;font-weight:normal;font-stretch:normal;font-size:medium;line-height:normal;font-family:sans-serif;font-variant-ligatures:normal;font-variant-position:normal;font-variant-caps:normal;font-variant-numeric:normal;font-variant-alternates:normal;font-feature-settings:normal;text-indent:0;text-align:start;text-decoration:none;text-decoration-line:none;text-decoration-style:solid;text-decoration-color:#000000;letter-spacing:normal;word-spacing:normal;text-transform:none;writing-mode:lr-tb;direction:ltr;text-orientation:mixed;dominant-baseline:auto;baseline-shift:baseline;text-anchor:start;white-space:normal;shape-padding:0;clip-rule:nonzero;display:inline;overflow:visible;visibility:visible;opacity:1;isolation:auto;mix-blend-mode:normal;color-interpolation:sRGB;color-interpolation-filters:linearRGB;solid-color:#000000;solid-opacity:1;vector-effect:none;fill:#ffffff;fill-opacity:1;fill-rule:nonzero;stroke:none;stroke-width:0.97935283;stroke-linecap:butt;stroke-linejoin:miter;stroke-miterlimit:4;stroke-dasharray:none;stroke-dashoffset:0;stroke-opacity:1;color-rendering:auto;image-rendering:auto;shape-rendering:auto;text-rendering:auto;enable-background:accumulate" />
      <path
         inkscape:connector-curvature="0"
         inkscape:label="#path_rocket_wing_left"
         id="path_rocket_wing_left"
         d="m 713.53396,131.37292 c -3.56778,8.05458 -6.60079,15.98634 -8.92774,23.58789 -0.0398,0.13126 -0.0775,0.25362 -0.11523,0.3789 -16.28795,-1.34167 -31.30878,2.82027 -38.85938,5.4668 -0.69443,0.24261 -1.29471,-0.0145 -1.67187,-0.48828 -0.37717,-0.47374 -0.49637,-1.12819 -0.11328,-1.75781 13.32347,-21.88459 35.33078,-26.61539 49.6875,-27.1875 z"
         style="color:#000000;font-style:normal;font-variant:normal;font-weight:normal;font-stretch:normal;font-size:medium;line-height:normal;font-family:sans-serif;font-variant-ligatures:normal;font-variant-position:normal;font-variant-caps:normal;font-variant-numeric:normal;font-variant-alternates:normal;font-feature-settings:normal;text-indent:0;text-align:start;text-decoration:none;text-decoration-line:none;text-decoration-style:solid;text-decoration-color:#000000;letter-spacing:normal;word-spacing:normal;text-transform:none;writing-mode:lr-tb;direction:ltr;text-orientation:mixed;dominant-baseline:auto;baseline-shift:baseline;text-anchor:start;white-space:normal;shape-padding:0;clip-rule:nonzero;display:inline;overflow:visible;visibility:visible;opacity:1;isolation:auto;mix-blend-mode:normal;color-interpolation:sRGB;color-interpolation-filters:linearRGB;solid-color:#000000;solid-opacity:1;vector-effect:none;fill:#ffffff;fill-opacity:1;fill-rule:nonzero;stroke:none;stroke-width:0.97935283;stroke-linecap:butt;stroke-linejoin:miter;stroke-miterlimit:4;stroke-dasharray:none;stroke-dashoffset:0;stroke-opacity:1;color-rendering:auto;image-rendering:auto;shape-rendering:auto;text-rendering:auto;enable-background:accumulate" />
      <path
         inkscape:connector-curvature="0"
         inkscape:label="#path_rocket_lower_stage"
         id="path1238"
         d="m 706.76638,166.48815 c 9.36966,1.63588 18.25045,4.95555 26.40234,9.88281 8.14488,4.9252 15.20833,11.2461 21.01368,18.78321 -2.1165,1.83322 -4.21115,3.54333 -6.27344,5.09961 -5.42827,-6.24151 -11.87753,-11.77772 -19.33594,-16.28711 -7.45872,-4.50765 -15.3583,-7.64483 -23.40625,-9.55274 0.41962,-2.54954 0.95959,-5.19986 1.59961,-7.92578 z"
         style="color:#000000;font-style:normal;font-variant:normal;font-weight:normal;font-stretch:normal;font-size:medium;line-height:normal;font-family:sans-serif;font-variant-ligatures:normal;font-variant-position:normal;font-variant-caps:normal;font-variant-numeric:normal;font-variant-alternates:normal;font-feature-settings:normal;text-indent:0;text-align:start;text-decoration:none;text-decoration-line:none;text-decoration-style:solid;text-decoration-color:#000000;letter-spacing:normal;word-spacing:normal;text-transform:none;writing-mode:lr-tb;direction:ltr;text-orientation:mixed;dominant-baseline:auto;baseline-shift:baseline;text-anchor:start;white-space:normal;shape-padding:0;clip-rule:nonzero;display:inline;overflow:visible;visibility:visible;opacity:1;isolation:auto;mix-blend-mode:normal;color-interpolation:sRGB;color-interpolation-filters:linearRGB;solid-color:#000000;solid-opacity:1;vector-effect:none;fill:#ffffff;fill-opacity:1;fill-rule:nonzero;stroke:none;stroke-width:0.97935283;stroke-linecap:butt;stroke-linejoin:miter;stroke-miterlimit:4;stroke-dasharray:none;stroke-dashoffset:0;stroke-opacity:1;color-rendering:auto;image-rendering:auto;shape-rendering:auto;text-rendering:auto;enable-background:accumulate" />
      <g
         id="g877"
         transform="matrix(1.0017066,0,0,1.0017066,-1.3289338,-0.31002308)"
         style="stroke-width:0.99829632">
        <path
           inkscape:connector-curvature="0"
           id="path_penguin_face_black"
           d="m 775.32074,81.149812 c -8.6334,0 -17.05647,4.386165 -21.84622,12.308292 -7.28391,12.045856 -3.4197,27.727926 8.62738,35.010266 4.12335,2.49312 8.67426,3.68143 13.16664,3.68143 8.63178,0 17.05565,-4.38723 21.84621,-12.30933 7.28391,-12.04751 3.41829,-27.727619 -8.62789,-35.01078 -4.12421,-2.493118 -8.67384,-3.679888 -13.16612,-3.679878 z m -6.57428,54.521218 c 0.47229,0.10663 0.94597,0.20233 1.42059,0.28525 -0.47458,-0.0829 -0.94835,-0.17864 -1.42059,-0.28525 z"
           style="color:#000000;font-style:normal;font-variant:normal;font-weight:normal;font-stretch:normal;font-size:medium;line-height:normal;font-family:sans-serif;font-variant-ligatures:normal;font-variant-position:normal;font-variant-caps:normal;font-variant-numeric:normal;font-variant-alternates:normal;font-feature-settings:normal;text-indent:0;text-align:start;text-decoration:none;text-decoration-line:none;text-decoration-style:solid;text-decoration-color:#000000;letter-spacing:normal;word-spacing:normal;text-transform:none;writing-mode:lr-tb;direction:ltr;text-orientation:mixed;dominant-baseline:auto;baseline-shift:baseline;text-anchor:start;white-space:normal;shape-padding:0;clip-rule:nonzero;display:inline;overflow:visible;visibility:visible;opacity:1;isolation:auto;mix-blend-mode:normal;color-interpolation:sRGB;color-interpolation-filters:linearRGB;solid-color:#000000;solid-opacity:1;vector-effect:none;fill:#231f20;fill-opacity:1;fill-rule:nonzero;stroke:none;stroke-width:0.97768432;stroke-linecap:butt;stroke-linejoin:miter;stroke-miterlimit:4;stroke-dasharray:none;stroke-dashoffset:0;stroke-opacity:1;color-rendering:auto;image-rendering:auto;shape-rendering:auto;text-rendering:auto;enable-background:accumulate" />
        <path
           inkscape:connector-curvature="0"
           id="path_penguin_face_white"
           d="m 767.16206,88.18194 c -0.43635,-0.0067 -0.86573,0.01445 -1.28829,0.06201 -1.69032,0.190235 -3.26931,0.80378 -4.73666,1.759582 -2.93466,1.911601 -5.40002,5.231572 -7.17579,9.299173 -1.8102,4.145335 -2.39958,9.066315 -1.72031,13.154235 l 0.0212,0.12868 -0.047,0.12505 c -0.31566,0.83202 -0.63147,1.62376 -0.97204,2.39934 1.89141,5.38749 5.59309,10.17531 10.85877,13.35836 4.12335,2.49312 8.67426,3.68143 13.16664,3.68143 8.63178,0 17.05565,-4.38723 21.84621,-12.30933 3.45194,-5.70948 4.39822,-12.23421 3.15795,-18.29501 -1.0533,-1.24421 -2.49966,-2.264499 -4.40697,-3.002916 -2.98791,-1.156857 -6.17445,-0.552133 -9.10952,1.373044 -2.9351,1.925182 -5.58156,5.178732 -7.35149,9.232512 -0.39584,0.90602 -0.78712,1.94277 -1.09657,2.92385 0.87571,0.60475 1.70094,1.28284 2.45979,2.03037 1.5875,1.56382 2.8868,3.41419 3.81631,5.43946 a 1.0001,1.0001 0 0 1 -0.45114,1.30638 c -1.95776,1.00917 -4.05858,1.73689 -6.22081,2.15646 -2.16495,0.42007 -4.38829,0.53082 -6.58409,0.32608 a 1.0001,1.0001 0 0 1 -0.42943,-0.14263 c -1.70548,-1.04403 -3.21136,-2.40407 -4.42402,-3.99407 -1.41076,-1.84973 -2.4152,-4.00034 -2.92592,-6.2699 a 1.0001,1.0001 0 0 1 0.58394,-1.1405 c 0.52139,-0.22216 1.0569,-0.41106 1.60197,-0.56637 1.3276,-0.37827 2.67084,-0.54413 3.97857,-0.64441 1.23481,-0.0947 2.47356,-0.12298 3.71192,-0.10129 0.57669,-0.97536 1.1751,-2.05883 1.61024,-3.05562 1.76995,-4.05377 2.31603,-8.115846 1.67018,-11.414295 -0.64582,-3.298449 -2.44123,-5.817849 -5.42964,-6.974253 -1.43375,-0.554627 -2.80491,-0.825222 -4.11396,-0.845425 z"
           style="color:#000000;font-style:normal;font-variant:normal;font-weight:normal;font-stretch:normal;font-size:medium;line-height:normal;font-family:sans-serif;font-variant-ligatures:normal;font-variant-position:normal;font-variant-caps:normal;font-variant-numeric:normal;font-variant-alternates:normal;font-feature-settings:normal;text-indent:0;text-align:start;text-decoration:none;text-decoration-line:none;text-decoration-style:solid;text-decoration-color:#000000;letter-spacing:normal;word-spacing:normal;text-transform:none;writing-mode:lr-tb;direction:ltr;text-orientation:mixed;dominant-baseline:auto;baseline-shift:baseline;text-anchor:start;white-space:normal;shape-padding:0;clip-rule:nonzero;display:inline;overflow:visible;visibility:visible;opacity:1;isolation:auto;mix-blend-mode:normal;color-interpolation:sRGB;color-interpolation-filters:linearRGB;solid-color:#000000;solid-opacity:1;vector-effect:none;fill:#ffffff;fill-opacity:1;fill-rule:nonzero;stroke:none;stroke-width:0.97768432;stroke-linecap:butt;stroke-linejoin:miter;stroke-miterlimit:4;stroke-dasharray:none;stroke-dashoffset:0;stroke-opacity:1;color-rendering:auto;image-rendering:auto;shape-rendering:auto;text-rendering:auto;enable-background:accumulate" />
        <path
           id="path1246"
           style="color:#000000;font-style:normal;font-variant:normal;font-weight:normal;font-stretch:normal;font-size:medium;line-height:normal;font-family:sans-serif;font-variant-ligatures:normal;font-variant-position:normal;font-variant-caps:normal;font-variant-numeric:normal;font-variant-alternates:normal;font-feature-settings:normal;text-indent:0;text-align:start;text-decoration:none;text-decoration-line:none;text-decoration-style:solid;text-decoration-color:#000000;letter-spacing:normal;word-spacing:normal;text-transform:none;writing-mode:lr-tb;direction:ltr;text-orientation:mixed;dominant-baseline:auto;baseline-shift:baseline;text-anchor:start;white-space:normal;shape-padding:0;clip-rule:nonzero;display:inline;overflow:visible;visibility:visible;opacity:1;isolation:auto;mix-blend-mode:normal;color-interpolation:sRGB;color-interpolation-filters:linearRGB;solid-color:#000000;solid-opacity:1;vector-effect:none;fill:#231f20;fill-opacity:1;fill-rule:nonzero;stroke:none;stroke-width:0.97768432;stroke-linecap:butt;stroke-linejoin:miter;stroke-miterlimit:4;stroke-dasharray:none;stroke-dashoffset:0;stroke-opacity:1;color-rendering:auto;image-rendering:auto;shape-rendering:auto;text-rendering:auto;enable-background:accumulate"
           d="m 766.18044,99.755729 c -1.84244,0.01108 -3.58525,1.032281 -4.33398,2.748051 -0.99643,2.28403 0.20161,4.92039 2.61328,5.85742 2.41172,0.93311 5.17939,-0.12595 6.17578,-2.41211 0.99746,-2.28385 -0.20013,-4.92046 -2.61328,-5.85547 -0.60318,-0.232618 -1.22765,-0.341583 -1.8418,-0.337891 z"
           inkscape:label="#path_penguin_eye_left"
           inkscape:connector-curvature="0" />
        <path
           id="path1248"
           style="color:#000000;font-style:normal;font-variant:normal;font-weight:normal;font-stretch:normal;font-size:medium;line-height:normal;font-family:sans-serif;font-variant-ligatures:normal;font-variant-position:normal;font-variant-caps:normal;font-variant-numeric:normal;font-variant-alternates:normal;font-feature-settings:normal;text-indent:0;text-align:start;text-decoration:none;text-decoration-line:none;text-decoration-style:solid;text-decoration-color:#000000;letter-spacing:normal;word-spacing:normal;text-transform:none;writing-mode:lr-tb;direction:ltr;text-orientation:mixed;dominant-baseline:auto;baseline-shift:baseline;text-anchor:start;white-space:normal;shape-padding:0;clip-rule:nonzero;display:inline;overflow:visible;visibility:visible;opacity:1;isolation:auto;mix-blend-mode:normal;color-interpolation:sRGB;color-interpolation-filters:linearRGB;solid-color:#000000;solid-opacity:1;vector-effect:none;fill:#231f20;fill-opacity:1;fill-rule:nonzero;stroke:none;stroke-width:0.97768432;stroke-linecap:butt;stroke-linejoin:miter;stroke-miterlimit:4;stroke-dasharray:none;stroke-dashoffset:0;stroke-opacity:1;color-rendering:auto;image-rendering:auto;shape-rendering:auto;text-rendering:auto;enable-background:accumulate"
           d="m 787.93825,108.1776 c -1.84151,0.0107 -3.58129,1.03268 -4.33007,2.7461 h -0.002 c -0.99711,2.28638 0.20248,4.92062 2.61524,5.85547 2.41216,0.93286 5.17439,-0.1249 6.17383,-2.40821 0.99853,-2.28598 -0.20161,-4.92354 -2.61524,-5.85547 -0.60297,-0.23291 -1.22796,-0.34146 -1.8418,-0.33789 z"
           inkscape:label="#path_penguin_eye_right"
           inkscape:connector-curvature="0" />
        <path
           inkscape:label="#path_penguin_beak"
           style="color:#000000;font-style:normal;font-variant:normal;font-weight:normal;font-stretch:normal;font-size:medium;line-height:normal;font-family:sans-serif;font-variant-ligatures:normal;font-variant-position:normal;font-variant-caps:normal;font-variant-numeric:normal;font-variant-alternates:normal;font-feature-settings:normal;text-indent:0;text-align:start;text-decoration:none;text-decoration-line:none;text-decoration-style:solid;text-decoration-color:#000000;letter-spacing:normal;word-spacing:normal;text-transform:none;writing-mode:lr-tb;direction:ltr;text-orientation:mixed;dominant-baseline:auto;baseline-shift:baseline;text-anchor:start;white-space:normal;shape-padding:0;clip-rule:nonzero;display:inline;overflow:visible;visibility:visible;opacity:1;isolation:auto;mix-blend-mode:normal;color-interpolation:sRGB;color-interpolation-filters:linearRGB;solid-color:#000000;solid-opacity:1;vector-effect:none;fill:#f4d817;fill-opacity:1;fill-rule:evenodd;stroke:none;stroke-width:1.99659264;stroke-linecap:round;stroke-linejoin:round;stroke-miterlimit:4;stroke-dasharray:none;stroke-dashoffset:0;stroke-opacity:1;color-rendering:auto;image-rendering:auto;shape-rendering:auto;text-rendering:auto;enable-background:accumulate"
           d="m 775.1273,112.53964 c 1.55377,0.77165 3.00249,1.77094 4.23828,2.98828 1.15068,1.13351 2.07746,2.47091 2.84961,3.89062 -1.50973,0.68444 -3.05674,1.30737 -4.68359,1.62305 -1.89268,0.36727 -3.83792,0.43862 -5.75977,0.28321 -1.41194,-0.89698 -2.69279,-2.01392 -3.70703,-3.34376 -1.05619,-1.38483 -1.79082,-2.99105 -2.2793,-4.66406 0.16714,-0.056 0.32856,-0.12749 0.49805,-0.17578 1.13209,-0.32257 2.3416,-0.47895 3.58398,-0.57422 1.75001,-0.13419 3.50778,-0.1329 5.25977,-0.0273 z"
           id="path_penguin_beak"
           inkscape:connector-curvature="0" />
      </g>
      <path
         style="color:#000000;font-style:normal;font-variant:normal;font-weight:normal;font-stretch:normal;font-size:medium;line-height:normal;font-family:sans-serif;font-variant-ligatures:normal;font-variant-position:normal;font-variant-caps:normal;font-variant-numeric:normal;font-variant-alternates:normal;font-feature-settings:normal;text-indent:0;text-align:start;text-decoration:none;text-decoration-line:none;text-decoration-style:solid;text-decoration-color:#000000;letter-spacing:normal;word-spacing:normal;text-transform:none;writing-mode:lr-tb;direction:ltr;text-orientation:mixed;dominant-baseline:auto;baseline-shift:baseline;text-anchor:start;white-space:normal;shape-padding:0;clip-rule:nonzero;display:inline;overflow:visible;visibility:visible;opacity:1;isolation:auto;mix-blend-mode:normal;color-interpolation:sRGB;color-interpolation-filters:linearRGB;solid-color:#000000;solid-opacity:1;vector-effect:none;fill:#ffffff;fill-opacity:1;fill-rule:nonzero;stroke:none;stroke-width:0.97935283;stroke-linecap:butt;stroke-linejoin:miter;stroke-miterlimit:4;stroke-dasharray:none;stroke-dashoffset:0;stroke-opacity:1;color-rendering:auto;image-rendering:auto;shape-rendering:auto;text-rendering:auto;enable-background:accumulate"
         d="m 818.68941,35.073953 -0.5457,0.194818 c 0,0 -23.34691,8.239302 -47.76761,27.099638 -2.6017,2.00923 -5.21517,4.146693 -7.81658,6.400644 l -0.0103,-0.0041 -0.21135,0.183451 -0.65008,0.566375 0.0222,0.0083 c -1.55252,1.369629 -3.09824,2.775114 -4.63124,4.226616 -8.84322,8.37493 -17.29827,18.226605 -24.24607,29.719115 -5.55141,9.17836 -10.37246,18.33728 -14.43376,27.23606 -4.04469,8.85973 -7.32393,17.45684 -9.80043,25.54883 -0.5833,1.90167 -1.13181,3.78251 -1.62521,5.62911 l -0.13851,0.51935 0.52917,0.0899 c 9.6311,1.65925 19.12133,5.08703 27.99054,10.44897 8.86819,5.36195 16.31145,12.17219 22.25757,19.93005 l 0.32607,0.42582 0.39481,-0.36329 c 1.4043,-1.29571 2.81546,-2.65812 4.22817,-4.05505 6.01578,-5.95464 12.10324,-12.85142 18.07073,-20.55068 5.99199,-7.73056 11.86246,-16.25536 17.41186,-25.43566 8.31728,-13.75898 13.5763,-28.33815 16.8553,-42.16797 8.27159,-34.909136 3.89277,-65.06424 3.89277,-65.06424 z m -43.30379,41.91527 c 5.241,0 10.5493,1.384131 15.36081,4.292762 14.05389,8.497019 18.56332,26.790655 10.06554,40.846085 -5.58901,9.24244 -15.41643,14.3614 -25.48684,14.3614 -5.24108,0 -10.55073,-1.38672 -15.36133,-4.29535 -14.05488,-8.49606 -18.56291,-26.79206 -10.06502,-40.845568 5.588,-9.242478 15.41452,-14.359329 25.48684,-14.359329 z"
         id="path_rocket_upper_stage-3"
         inkscape:connector-curvature="0" />
      <path
         style="color:#000000;font-style:normal;font-variant:normal;font-weight:normal;font-stretch:normal;font-size:medium;line-height:normal;font-family:sans-serif;font-variant-ligatures:normal;font-variant-position:normal;font-variant-caps:normal;font-variant-numeric:normal;font-variant-alternates:normal;font-feature-settings:normal;text-indent:0;text-align:start;text-decoration:none;text-decoration-line:none;text-decoration-style:solid;text-decoration-color:#000000;letter-spacing:normal;word-spacing:normal;text-transform:none;writing-mode:lr-tb;direction:ltr;text-orientation:mixed;dominant-baseline:auto;baseline-shift:baseline;text-anchor:start;white-space:normal;shape-padding:0;clip-rule:nonzero;display:inline;overflow:visible;visibility:visible;opacity:1;isolation:auto;mix-blend-mode:normal;color-interpolation:sRGB;color-interpolation-filters:linearRGB;solid-color:#000000;solid-opacity:1;vector-effect:none;fill:#ffffff;fill-opacity:1;fill-rule:nonzero;stroke:none;stroke-width:6.17708731;stroke-linecap:butt;stroke-linejoin:miter;stroke-miterlimit:4;stroke-dasharray:none;stroke-dashoffset:0;stroke-opacity:1;color-rendering:auto;image-rendering:auto;shape-rendering:auto;text-rendering:auto;enable-background:accumulate"
         d="m 823.68238,69.666533 c 19.41784,18.54208 30.42019,44.205777 30.46317,71.054597 -0.003,54.41396 -44.04867,98.45919 -98.46341,98.45939 -11.78878,2e-5 -23.20944,-2.11315 -33.68242,-5.90528 l -7.13023,4.67526 c 12.47586,5.25675 26.43351,7.40713 40.81273,7.40711 57.75511,-2.1e-4 104.6406,-46.8874 104.64051,-104.6425 v -0.002 -0.002 c -0.0449,-28.04515 -13.24414,-58.660424 -31.37808,-74.460849 -1.43442,-1.24984 -3.39911,-2.536399 -4.76302,-3.673561 m -137.0562,157.18868 c -22.02322,-19.18976 -36.08375,-47.5727 -36.0837,-79.05027 -8e-5,-57.755329 46.88518,-104.640599 104.64049,-104.640519 h 0.002 0.004 c 10.38086,0.0161 18.35317,1.533588 30.60393,4.67102 2.03984,0.522405 4.55262,1.42337 6.62041,2.162725 l -7.13104,4.191337 -0.0303,-0.09453 c -9.71732,-3.13429 -19.86281,-4.73756 -30.07309,-4.75346 h -10e-6 c -54.41509,0.0021 -98.45947,44.0478 -98.45939,98.463427 -4e-5,28.03883 11.69394,53.32493 30.47513,71.25094"
         id="rocket_upper_stage_black-9-3"
         inkscape:connector-curvature="0"
         sodipodi:nodetypes="cccccccccsccccccsccccccc" />
    </g>
  </g>
</svg>
